<svg width="26" height="26" viewBox="0 0 26 26" fill="none" xmlns="http://www.w3.org/2000/svg">
<g id="icon / ionicons / outline / cash-outline">
<path id="Vector (Stroke)" fill-rule="evenodd" clip-rule="evenodd" d="M24.25 15.75C24.25 16.5784 23.5784 17.25 22.75 17.25L3.25 17.25C2.42157 17.25 1.75 16.5784 1.75 15.75V5.25C1.75 4.42157 2.42157 3.75 3.25 3.75L22.75 3.75C23.5784 3.75 24.25 4.42157 24.25 5.25V15.75ZM3.25 15.75L22.75 15.75V5.25L3.25 5.25V15.75Z" fill="#8A33E0"/>
<path id="Vector (Stroke)_2" fill-rule="evenodd" clip-rule="evenodd" d="M3.25 19C3.25 18.5858 3.58579 18.25 4 18.25H22C22.4142 18.25 22.75 18.5858 22.75 19C22.75 19.4142 22.4142 19.75 22 19.75H4C3.58579 19.75 3.25 19.4142 3.25 19Z" fill="#8A33E0"/>
<path id="Vector (Stroke)_3" fill-rule="evenodd" clip-rule="evenodd" d="M4.75 21.5C4.75 21.0858 5.08579 20.75 5.5 20.75H20.5C20.9142 20.75 21.25 21.0858 21.25 21.5C21.25 21.9142 20.9142 22.25 20.5 22.25H5.5C5.08579 22.25 4.75 21.9142 4.75 21.5Z" fill="#8A33E0"/>
<path id="Vector (Stroke)_4" fill-rule="evenodd" clip-rule="evenodd" d="M13 7.64062C11.3086 7.64062 9.9375 9.01175 9.9375 10.7031C9.9375 12.3945 11.3086 13.7656 13 13.7656C14.6914 13.7656 16.0625 12.3945 16.0625 10.7031C16.0625 9.01175 14.6914 7.64062 13 7.64062ZM8.40625 10.7031C8.40625 8.16607 10.4629 6.10938 13 6.10938C15.5371 6.10938 17.5938 8.16607 17.5938 10.7031C17.5938 13.2402 15.5371 15.2969 13 15.2969C10.4629 15.2969 8.40625 13.2402 8.40625 10.7031Z" fill="#8A33E0"/>
<path id="Vector (Stroke)_5" fill-rule="evenodd" clip-rule="evenodd" d="M19.8906 3.8125C20.3135 3.8125 20.6562 4.15528 20.6562 4.57812C20.6562 5.39035 20.9789 6.16931 21.5532 6.74364C22.1276 7.31797 22.9065 7.64062 23.7188 7.64062C24.1416 7.64062 24.4844 7.98341 24.4844 8.40625C24.4844 8.82909 24.1416 9.17188 23.7188 9.17188C22.5004 9.17188 21.332 8.68789 20.4705 7.8264C19.609 6.9649 19.125 5.79646 19.125 4.57812C19.125 4.15528 19.4678 3.8125 19.8906 3.8125Z" fill="#8A33E0"/>
<path id="Vector (Stroke)_6" fill-rule="evenodd" clip-rule="evenodd" d="M6.10938 3.8125C6.53222 3.8125 6.875 4.15528 6.875 4.57812C6.875 5.18138 6.75618 5.77874 6.52532 6.33608C6.29446 6.89342 5.95609 7.39983 5.52952 7.8264C5.10295 8.25297 4.59654 8.59134 4.0392 8.8222C3.48186 9.05305 2.88451 9.17188 2.28125 9.17188C1.85841 9.17188 1.51562 8.82909 1.51562 8.40625C1.51562 7.98341 1.85841 7.64062 2.28125 7.64062C2.68342 7.64062 3.08166 7.56141 3.45322 7.40751C3.82478 7.2536 4.16238 7.02802 4.44676 6.74364C4.73114 6.45926 4.95673 6.12165 5.11063 5.75009C5.26454 5.37853 5.34375 4.9803 5.34375 4.57812C5.34375 4.15528 5.68653 3.8125 6.10938 3.8125Z" fill="#8A33E0"/>
<path id="Vector (Stroke)_7" fill-rule="evenodd" clip-rule="evenodd" d="M20.4705 13.5799C21.332 12.7184 22.5004 12.2344 23.7188 12.2344C24.1416 12.2344 24.4844 12.5772 24.4844 13C24.4844 13.4228 24.1416 13.7656 23.7188 13.7656C22.9065 13.7656 22.1276 14.0883 21.5532 14.6626C20.9789 15.2369 20.6562 16.0159 20.6562 16.8281C20.6562 17.251 20.3135 17.5938 19.8906 17.5938C19.4678 17.5938 19.125 17.251 19.125 16.8281C19.125 15.6098 19.609 14.4413 20.4705 13.5799Z" fill="#8A33E0"/>
<path id="Vector (Stroke)_8" fill-rule="evenodd" clip-rule="evenodd" d="M1.51562 13C1.51562 12.5772 1.85841 12.2344 2.28125 12.2344C2.88451 12.2344 3.48186 12.3532 4.0392 12.5841C4.59654 12.8149 5.10295 13.1533 5.52952 13.5799C5.95609 14.0064 6.29446 14.5128 6.52532 15.0702C6.75618 15.6275 6.875 16.2249 6.875 16.8281C6.875 17.251 6.53222 17.5938 6.10938 17.5938C5.68653 17.5938 5.34375 17.251 5.34375 16.8281C5.34375 16.426 5.26454 16.0277 5.11063 15.6562C4.95673 15.2846 4.73114 14.947 4.44676 14.6626C4.16238 14.3782 3.82478 14.1526 3.45322 13.9987C3.08166 13.8448 2.68342 13.7656 2.28125 13.7656C1.85841 13.7656 1.51562 13.4228 1.51562 13Z" fill="#8A33E0"/>
</g>
</svg>
